<?xml version="1.0" standalone="no"?>
<!DOCTYPE svg PUBLIC "-//W3C//DTD SVG 20010904//EN"
 "http://www.w3.org/TR/2001/REC-SVG-20010904/DTD/svg10.dtd">
<svg version="1.0" xmlns="http://www.w3.org/2000/svg"
 width="606.000000pt" height="606.000000pt" viewBox="0 0 606.000000 606.000000"
 preserveAspectRatio="xMidYMid meet">
<metadata>
Created by potrace 1.11, written by Peter Selinger 2001-2013
</metadata>
<g transform="translate(0.000000,606.000000) scale(0.100000,-0.100000)"
fill="#000000" stroke="none">
<path d="M2835 6054 c-914 -72 -1698 -501 -2237 -1222 -317 -425 -514 -930
-579 -1487 -16 -130 -15 -502 0 -630 74 -621 297 -1148 683 -1617 93 -113 322
-339 438 -432 932 -745 2237 -872 3290 -319 1204 632 1835 1962 1565 3298 -52
260 -129 480 -256 735 -150 302 -329 550 -569 790 -482 482 -1088 780 -1761
865 -120 15 -473 27 -574 19z m579 -378 c586 -95 1075 -338 1484 -740 330
-323 568 -721 702 -1176 116 -395 131 -888 40 -1300 -205 -921 -880 -1669
-1773 -1964 -152 -51 -310 -87 -482 -113 -182 -26 -553 -24 -740 5 -580 90
-1093 349 -1501 756 -700 701 -954 1717 -667 2666 183 606 595 1143 1138 1485
304 192 722 342 1070 384 50 6 104 13 120 15 74 10 515 -3 609 -18z"/>
<path d="M2864 5510 c-389 -27 -758 -141 -1092 -339 -684 -404 -1132 -1102
-1213 -1889 -15 -146 -6 -493 16 -632 64 -401 228 -787 474 -1115 96 -127 297
-334 426 -438 333 -269 723 -444 1156 -518 181 -31 589 -34 769 -6 533 85
1018 333 1395 712 383 385 628 886 700 1430 21 159 21 471 0 630 -107 815
-596 1513 -1327 1894 -300 156 -629 247 -988 271 -157 11 -153 11 -316 0z
m655 -356 c2 -2 0 -24 -4 -49 l-6 -46 -57 7 c-31 3 -61 7 -67 8 -5 0 -20 -69
-32 -154 -12 -85 -25 -175 -28 -199 l-7 -44 -50 6 c-28 4 -52 8 -54 10 -2 2 9
92 24 200 32 221 38 200 -55 212 l-51 7 5 36 c2 20 6 42 8 48 2 7 61 3 187
-14 100 -14 185 -26 187 -28z m-649 26 c62 -18 64 -22 41 -69 -12 -22 -24 -41
-27 -41 -3 0 -27 7 -53 16 -63 20 -101 7 -101 -35 0 -32 18 -41 142 -75 97
-27 137 -102 103 -192 -25 -65 -77 -97 -165 -102 -53 -3 -77 1 -118 18 -29 12
-52 26 -52 31 0 16 42 79 53 79 7 -1 23 -7 37 -15 31 -18 112 -19 128 -3 19
19 14 56 -10 72 -13 7 -48 19 -78 26 -64 15 -87 25 -118 53 -27 25 -46 88 -37
128 9 38 51 88 90 105 36 16 116 18 165 4z m-467 -246 c82 -173 92 -225 58
-292 -34 -67 -127 -122 -205 -122 -46 1 -110 33 -139 71 -14 19 -57 100 -95
180 l-70 147 49 23 c27 12 51 21 53 18 2 -2 35 -69 73 -149 72 -151 96 -180
148 -180 39 0 65 18 81 56 19 44 14 61 -63 223 -35 74 -62 135 -61 136 14 11
85 43 92 41 5 -1 41 -69 79 -152z m1401 127 c21 -9 26 -16 21 -29 -4 -9 -42
-113 -86 -231 -43 -118 -80 -216 -82 -218 -8 -7 -97 30 -97 40 0 7 37 113 82
235 91 248 79 234 162 203z m402 -326 c-3 -66 -9 -151 -13 -189 -4 -46 -2 -67
4 -63 6 4 50 61 98 127 l86 120 45 -31 c29 -20 42 -34 37 -43 -5 -7 -71 -99
-147 -204 -151 -208 -140 -200 -203 -145 l-33 28 11 143 c6 78 9 159 7 179
l-3 37 -88 -122 -89 -122 -29 17 c-68 40 -71 30 88 251 l145 202 45 -33 45
-32 -6 -120z m-2336 -182 c126 -65 230 -121 230 -124 0 -3 -19 -21 -42 -39
l-41 -34 -40 22 -40 22 -46 -39 c-25 -22 -57 -51 -70 -65 l-24 -26 18 -40 19
-41 -42 -41 -41 -42 -9 25 c-6 13 -51 125 -101 248 l-92 224 33 34 c17 18 38
33 46 33 7 0 116 -53 242 -117z m1202 -305 l26 -83 102 -3 103 -3 -82 -59
c-44 -33 -81 -61 -81 -63 0 -2 13 -42 29 -90 17 -48 27 -87 24 -87 -2 0 -39
25 -80 55 l-74 54 -74 -54 c-41 -30 -76 -55 -79 -55 -3 0 8 39 25 87 16 48 29
88 29 90 0 2 -37 30 -82 63 l-82 60 102 0 101 0 27 85 c16 47 31 85 34 85 4 0
18 -37 32 -82z m-696 -173 c25 -42 45 -77 43 -79 -2 -2 -33 -25 -68 -51 -196
-144 -354 -379 -418 -622 -31 -120 -42 -328 -23 -455 51 -349 276 -669 590
-836 383 -205 862 -170 1211 89 88 65 219 203 275 290 66 101 121 225 152 337
24 88 26 114 26 287 1 178 -1 196 -27 289 -77 276 -231 494 -468 659 l-22 16
47 75 c26 42 50 76 53 76 19 0 152 -108 228 -185 187 -187 319 -441 366 -705
23 -124 18 -365 -10 -489 -118 -536 -522 -932 -1058 -1037 -119 -24 -356 -24
-475 -1 -534 105 -946 510 -1059 1039 -29 136 -32 370 -6 502 54 269 170 495
349 678 74 75 222 197 240 198 4 0 28 -34 54 -75z m2504 -5 c91 -46 145 -147
138 -255 -5 -82 -13 -91 -66 -69 l-42 16 6 52 c13 124 -96 200 -212 147 -72
-33 -107 -106 -84 -175 12 -37 71 -96 95 -96 18 0 18 4 0 -58 -15 -50 -16 -51
-45 -41 -89 32 -163 146 -163 254 -1 180 211 307 373 225z m-3660 -190 l93
-115 102 -38 102 -38 -19 -53 -20 -53 -101 39 -102 40 -135 -22 c-74 -12 -147
-24 -163 -27 l-27 -6 22 61 21 61 76 7 c134 12 132 8 57 92 l-65 72 21 60 c17
47 25 57 34 48 6 -7 53 -65 104 -128z m3846 -455 c89 -56 136 -173 113 -283
-32 -158 -220 -243 -373 -168 -86 42 -136 126 -136 229 0 106 52 190 144 234
43 20 64 23 127 21 64 -3 83 -8 125 -33z m-3676 -170 l0 -55 -140 0 c-77 0
-140 -4 -140 -8 0 -5 42 -31 93 -59 87 -48 92 -53 95 -86 3 -35 3 -35 -95 -89
l-98 -53 143 -3 142 -3 0 -54 0 -55 -250 0 -251 0 3 56 3 56 128 67 c70 37
130 70 133 73 3 4 -56 39 -130 78 l-136 72 0 53 0 54 83 4 c45 1 157 4 250 5
l167 2 0 -55z m1237 -220 c51 -137 92 -254 93 -258 0 -4 -25 -7 -56 -5 l-56 3
-17 45 -17 45 -95 3 -95 3 -15 -48 -15 -48 -58 -3 c-45 -2 -57 0 -54 11 1 8
44 125 93 261 l90 247 55 -3 54 -3 93 -250z m563 234 c25 -11 57 -32 72 -46
l26 -25 -39 -35 -38 -35 -26 21 c-84 65 -192 39 -231 -55 -63 -151 103 -283
229 -184 l26 20 35 -31 c20 -17 36 -36 36 -43 0 -15 -66 -60 -109 -74 -63 -22
-151 -15 -212 16 -195 99 -177 404 28 478 57 20 150 17 203 -7z m571 -224 c49
-132 92 -248 95 -257 5 -16 -2 -18 -54 -18 l-58 0 -15 48 -15 47 -95 3 -95 3
-15 -48 -15 -48 -57 -3 c-31 -2 -57 1 -57 5 0 4 41 122 92 261 l93 253 54 -3
54 -3 88 -240z m1163 -287 c127 -34 233 -63 235 -65 7 -5 -41 -175 -61 -219
-10 -23 -33 -56 -50 -73 -52 -53 -85 -66 -168 -66 -62 0 -84 5 -126 27 -85 45
-134 121 -134 209 0 19 11 77 25 129 30 114 32 120 41 120 4 0 111 -28 238
-62z m-3431 -274 c32 -86 56 -158 55 -159 -9 -8 -461 -175 -465 -171 -12 12
-111 291 -105 297 18 15 74 31 81 23 5 -5 20 -43 35 -84 39 -108 37 -106 86
-91 22 7 43 18 46 25 3 7 -6 43 -21 81 -14 37 -25 69 -25 71 0 5 69 34 80 34
4 0 20 -34 36 -76 25 -69 29 -75 50 -70 41 11 74 25 74 33 0 5 -18 53 -39 108
l-39 100 36 17 c21 9 42 17 47 17 6 1 36 -70 68 -155z m3446 -420 c3 -3 -47
-94 -53 -94 -3 0 -328 178 -394 216 l-43 25 27 48 27 48 216 -120 c119 -65
218 -121 220 -123z m-3294 47 c41 -18 123 -101 182 -184 l32 -44 -196 -152
c-225 -174 -195 -169 -288 -40 -63 88 -89 160 -79 219 29 157 213 263 349 201z
m2880 -151 c39 -36 105 -98 148 -139 l77 -73 -31 -39 c-19 -24 -39 -39 -52
-39 -12 0 -92 14 -177 30 -85 16 -162 30 -170 30 -8 0 37 -50 100 -109 l115
-109 -34 -36 c-19 -20 -38 -36 -42 -36 -10 0 -354 322 -357 334 -1 6 14 28 35
48 l38 37 175 -33 c96 -18 177 -31 180 -29 2 2 -45 50 -105 107 l-109 103 33
42 34 42 36 -33 c20 -18 68 -62 106 -98z m-2519 -226 c-19 -79 -32 -62 114
-157 25 -16 27 -16 63 14 l37 30 46 -31 c25 -18 43 -35 39 -38 -3 -4 -99 -75
-213 -158 -228 -167 -210 -160 -279 -105 l-21 16 59 245 c33 135 62 251 64
258 4 9 18 4 51 -18 38 -27 45 -36 40 -56z m2011 -133 c116 -59 177 -219 128
-339 -22 -53 -92 -116 -152 -136 -49 -17 -149 -21 -171 -8 -9 7 -8 17 5 50 17
40 20 42 63 42 57 0 108 26 137 69 61 91 -19 241 -129 241 -45 0 -71 -12 -110
-48 -33 -30 -33 -35 -12 -68 l17 -24 34 20 c46 27 50 26 72 -18 l19 -37 -89
-47 -89 -47 -14 22 c-7 12 -32 57 -54 100 l-40 77 29 39 c40 56 114 108 189
132 39 13 123 3 167 -20z m-1428 -128 c56 -20 119 -77 142 -128 23 -50 24
-136 3 -197 -20 -59 -77 -126 -128 -149 -60 -27 -158 -25 -221 5 -50 23 -125
95 -125 119 0 6 20 20 45 30 l44 19 32 -36 c82 -94 216 -58 250 67 31 116 -75
216 -188 175 l-42 -15 -26 38 c-14 21 -25 43 -25 48 0 10 70 38 110 44 35 5
77 -2 129 -20z m731 -60 c0 -4 -37 -119 -82 -255 l-83 -248 -42 -1 c-24 -1
-48 -2 -54 -3 -9 -1 -214 483 -207 490 2 1 27 4 57 5 l54 3 16 -44 16 -44 90
3 c50 1 93 6 97 9 3 4 10 23 15 42 10 36 9 36 111 48 6 1 12 -1 12 -5z"/>
<path d="M1680 4535 c0 -13 73 -165 79 -165 3 1 25 18 49 39 l42 39 -79 46
c-80 46 -91 51 -91 41z"/>
<path d="M4875 3339 c-17 -4 -46 -24 -64 -43 -82 -85 -29 -220 92 -233 60 -7
110 11 148 54 29 34 31 40 27 95 -3 47 -10 64 -33 88 -42 44 -104 59 -170 39z"/>
<path d="M2445 3059 c-14 -44 -25 -84 -25 -90 0 -5 27 -9 60 -9 33 0 60 3 60
7 0 18 -55 173 -62 173 -4 0 -19 -36 -33 -81z"/>
<path d="M3587 3067 c-15 -46 -27 -89 -27 -95 0 -8 20 -12 60 -12 33 0 60 3
60 7 0 13 -52 168 -59 175 -4 5 -19 -29 -34 -75z"/>
<path d="M4731 2644 c-28 -112 38 -194 156 -194 80 0 128 44 147 135 l6 30
-142 38 c-79 21 -146 38 -149 37 -4 0 -12 -21 -18 -46z"/>
<path d="M1510 2004 c-74 -32 -121 -109 -105 -173 8 -33 54 -101 69 -101 14 0
230 167 235 181 5 16 -59 79 -96 95 -41 17 -59 17 -103 -2z"/>
<path d="M1952 1538 c-24 -76 -43 -150 -40 -153 5 -5 142 102 146 113 1 5 -9
17 -23 26 -81 52 -72 51 -83 14z"/>
<path d="M3067 1223 c-28 -3 -37 -8 -33 -18 3 -8 17 -48 32 -90 15 -42 30 -72
34 -68 8 9 50 152 50 171 0 12 -9 12 -83 5z"/>
</g>
</svg>
