<?xml version="1.0" standalone="no"?>
<!DOCTYPE svg PUBLIC "-//W3C//DTD SVG 20010904//EN"
 "http://www.w3.org/TR/2001/REC-SVG-20010904/DTD/svg10.dtd">
<svg version="1.0" xmlns="http://www.w3.org/2000/svg"
 width="231.000000pt" height="231.000000pt" viewBox="0 0 231.000000 231.000000"
 preserveAspectRatio="xMidYMid meet">
<metadata>
Created by potrace 1.11, written by Peter Selinger 2001-2013
</metadata>
<g transform="translate(0.000000,231.000000) scale(0.100000,-0.100000)"
fill="#000000" stroke="none">
<path d="M987 2300 c-267 -42 -483 -154 -667 -346 -218 -227 -320 -481 -320
-799 0 -331 116 -604 353 -832 100 -96 177 -150 300 -208 371 -178 809 -145
1149 86 139 95 286 259 366 409 91 169 132 340 132 545 0 319 -102 573 -323
802 -164 170 -359 279 -590 329 -85 19 -318 27 -400 14z m243 -965 c14 -7 34
-23 45 -35 l20 -22 -29 -23 -29 -23 -29 21 c-40 30 -99 29 -133 -3 -54 -50
-53 -156 2 -199 34 -27 101 -28 134 -2 25 19 25 19 59 -9 l34 -27 -42 -28
c-60 -40 -113 -49 -177 -30 -192 55 -184 348 10 396 36 9 101 1 135 -16z
m-520 -145 l0 -160 80 0 80 0 0 -40 0 -40 -125 0 -125 0 0 200 0 200 45 0 45
0 0 -160z m955 -43 l72 -198 -45 3 c-43 3 -47 6 -56 36 l-9 32 -77 0 -77 0 -9
-32 c-9 -30 -14 -33 -52 -36 -23 -2 -42 0 -42 4 0 5 112 319 135 377 6 14 17
17 47 15 l40 -3 73 -198z"/>
<path d="M1546 1230 c-3 -8 -15 -41 -25 -72 l-20 -58 49 0 49 0 -15 51 c-25
83 -31 96 -38 79z"/>
</g>
</svg>
